<?xml version="1.0" encoding="UTF-8"?>
<svg id="Layer_2" data-name="Layer 2" xmlns="http://www.w3.org/2000/svg" viewBox="0 0 927.25 897.43">
  <path d="M457.44,58.81c-171.87,13.86-318.72,150.82-346.3,320.84-25.47,157.03,43.91,336.22,212.27,371.91-130.37,45.55-216.37-63.1-250.81-174.87C-29.21,246.38,267.36-72.29,603.31,14.44c179.33,46.3,313.61,215.36,323.17,400.13,1.46,28.18,4.39,50.31-30.21,51.45-25.72.85-72.31,1.52-96.9-1.21-15.7-1.74-26.83-17.44-26.69-32.56.06-6.39,8.71-18.69,14.87-18.69h80.81l2.14-4.02c-14.13-189.32-168.55-345.04-359.84-352.71l-1.91,101.57c-1.7,21.84-8.39,32.05-32.12,28.03-3.61-.61-9.7-2.82-12.21-5.52-1.17-1.26-6.98-13.81-6.98-14.7V58.81Z"/>
  <path d="M916.65,657.93c-25.89-8.01-52.37-16.11-79.89-15.87-127.43,1.12-234.47,145.53-342.52,205.43-151.66,84.07-322.39,62-440.88-66.31-12.57-13.61-48.26-59.08-53.13-74.98-.31-1.02-.54-3.21.95-2.91,48.81,39.45,105.67,75.4,168.12,88.1,52.59,10.69,118.31,9.71,170.32-3.92,118.37-31.01,198.56-130.2,312.45-172.38,86.75-32.12,203.86-39.83,264.58,42.84Z"/>
  <path d="M703.08,262.44c10.64-.6,22.25,6.89,24.98,17.48,4.19,16.25,2.68,21.46-8.48,32.18-17.35,16.67-40.21,34.04-59.36,49.04-33.82,26.49-79.95,53.12-110.18,80.99-18.14,16.72-12.5,35.99-39.83,44.91-52.46,17.12-86.16-49.52-41.93-81.34,17.47-12.56,31.4-7.52,50.19-2.89,38.31-31.86,80.14-58.96,119.21-89.83,12.38-9.78,53.66-49.87,65.39-50.53Z"/>
</svg>